Coordinates
version=1
nRows=16
nColumns=40
inDegrees=yes

Units are S.I. units (second, meters, Newtons, ...)
If the header above contains a line with 'inDegrees', this indicates whether rotational values are in degrees (yes) or radians (no).

endheader
time	pelvis_tilt	pelvis_list	pelvis_rotation	pelvis_tx	pelvis_ty	pelvis_tz	hip_flexion_r	hip_adduction_r	hip_rotation_r	knee_angle_r	knee_angle_r_beta	ankle_angle_r	subtalar_angle_r	mtp_angle_r	hip_flexion_l	hip_adduction_l	hip_rotation_l	knee_angle_l	knee_angle_l_beta	ankle_angle_l	subtalar_angle_l	mtp_angle_l	lumbar_extension	lumbar_bending	lumbar_rotation	arm_flex_r	arm_add_r	arm_rot_r	elbow_flex_r	pro_sup_r	wrist_flex_r	wrist_dev_r	arm_flex_l	arm_add_l	arm_rot_l	elbow_flex_l	pro_sup_l	wrist_flex_l	wrist_dev_l
      4.12500000	     13.59808106	     -8.27163063	     -5.39457596	     -0.32175607	      0.84672599	     -1.02723134	     40.17956194	      6.77402937	    -12.88460552	      6.13980439	      0.10715980	     -0.01404581	      0.00000000	      0.00000000	     28.33948757	    -11.64228354	     -8.64843202	     83.77481114	      1.46214628	     29.46329510	      0.00000000	      0.00000000	    -25.48865378	     -2.03501193	     13.13030988	     89.93133426	    -18.27577412	     23.74664814	     32.27041658	     81.98988761	      0.00000000	      0.00000000	     89.95663680	    -13.89728984	     33.99867290	     48.64444445	     78.44035749	      0.00000000	      0.00000000
      4.13000000	     13.57206412	     -8.26613613	     -5.39336111	     -0.32171688	      0.84739054	     -1.02725373	     40.18775342	      6.77175515	    -12.90128124	      6.14686274	      0.10728299	     -0.02739655	      0.00000000	      0.00000000	     28.31952818	    -11.63516320	     -8.65169661	     83.69145405	      1.46069143	     29.43333686	      0.00000000	      0.00000000	    -25.44467678	     -2.03655085	     13.13844057	     89.93151197	    -18.28977130	     23.74431316	     32.29067350	     81.98650570	      0.00000000	      0.00000000	     89.95644253	    -13.90286300	     33.99267549	     48.64137705	     78.44596565	      0.00000000	      0.00000000
      4.13500000	     13.56759799	     -8.25098373	     -5.41061716	     -0.32169165	      0.84831749	     -1.02726443	     40.20862002	      6.75455113	    -12.97966219	      6.25674365	      0.10920078	     -0.22805673	      0.00000000	      0.00000000	     28.15814677	    -11.59247785	     -8.68243745	     83.35930042	      1.45489425	     29.27030690	      0.00000000	      0.00000000	    -25.40708711	     -2.05785989	     13.16157637	     89.93118975	    -18.32333969	     23.84799557	     32.19524831	     81.98173557	      0.00000000	      0.00000000	     89.95625662	    -13.88987038	     34.09459237	     48.52054704	     78.48290851	      0.00000000	      0.00000000
      4.14000000	     13.54994696	     -8.25589496	     -5.40989515	     -0.32156085	      0.84903426	     -1.02712059	     40.19707439	      6.76661098	    -12.98929780	      6.27099400	      0.10944949	     -0.25591593	      0.00000000	      0.00000000	     28.13920845	    -11.61882598	     -8.68798730	     83.31538308	      1.45412775	     29.24858998	      0.00000000	      0.00000000	    -25.36177844	     -2.07163580	     13.15898067	     89.93061068	    -18.33036626	     23.85494580	     32.20767030	     81.97939026	      0.00000000	      0.00000000	     89.95621972	    -13.88774153	     34.08787781	     48.52689225	     78.48879779	      0.00000000	      0.00000000
      4.14500000	     13.59924488	     -8.24786922	     -5.43963722	     -0.32131677	      0.84984521	     -1.02707458	     40.14593189	      6.77769618	    -13.08060023	      6.34599501	      0.11075851	     -0.32321322	      0.00000000	      0.00000000	     27.93841333	    -11.63416930	     -8.77674511	     83.08231125	      1.45005988	     29.07128169	      0.00000000	      0.00000000	    -25.32965038	     -2.09565629	     13.19882063	     89.93079242	    -18.34071264	     24.10062018	     31.97815602	     81.98268588	      0.00000000	      0.00000000	     89.95614835	    -13.88442955	     34.25182431	     48.40768873	     78.54776113	      0.00000000	      0.00000000
      4.15000000	     13.58326493	     -8.24112673	     -5.43877553	     -0.32130892	      0.85057437	     -1.02702575	     40.13287727	      6.78188571	    -13.09006549	      6.34640397	      0.11076564	     -0.32065182	      0.00000000	      0.00000000	     27.93031698	    -11.64070889	     -8.78684777	     83.04205566	      1.44935729	     29.05743394	      0.00000000	      0.00000000	    -25.29844610	     -2.10397589	     13.20045657	     89.93062606	    -18.35044575	     24.09411414	     32.01036246	     81.97964122	      0.00000000	      0.00000000	     89.95589061	    -13.89073459	     34.24453325	     48.41275926	     78.55160191	      0.00000000	      0.00000000
      4.15500000	     13.58993182	     -8.20590846	     -5.48365857	     -0.32125433	      0.85169235	     -1.02694794	     40.09015976	      6.78899832	    -13.19381072	      6.35246913	      0.11087150	     -0.35038334	      0.00000000	      0.00000000	     27.75663690	    -11.62051752	     -8.88213639	     82.72241262	      1.44377847	     28.90770820	      0.00000000	      0.00000000	    -25.28040136	     -2.15345048	     13.23329926	     89.93000293	    -18.37213224	     24.19376321	     31.96630068	     81.97561553	      0.00000000	      0.00000000	     89.95577107	    -13.93151213	     34.33427798	     48.31449706	     78.58566938	      0.00000000	      0.00000000
      4.16000000	     13.57433464	     -8.20072766	     -5.47876564	     -0.32113082	      0.85240151	     -1.02687104	     40.07321694	      6.79145208	    -13.20239149	      6.35348547	      0.11088924	     -0.35468032	      0.00000000	      0.00000000	     27.73017073	    -11.63131215	     -8.89146352	     82.67977132	      1.44303423	     28.88938276	      0.00000000	      0.00000000	    -25.23480810	     -2.16464859	     13.21891518	     89.92914167	    -18.37508057	     24.19446336	     31.98507582	     81.97330504	      0.00000000	      0.00000000	     89.95560785	    -13.92141990	     34.32938644	     48.32728109	     78.59021556	      0.00000000	      0.00000000
      4.16500000	     13.75829236	     -8.11276110	     -5.42873380	     -0.32089544	      0.85359137	     -1.02691993	     39.81350818	      6.70858446	    -13.33793342	      6.30201336	      0.10999088	     -0.10291291	      0.00000000	      0.00000000	     27.37953348	    -11.53597876	     -9.00305564	     82.40819465	      1.43829433	     28.62072103	      0.00000000	      0.00000000	    -25.32532967	     -2.27485228	     13.11776178	     89.93015112	    -18.36858761	     24.68169360	     31.70440647	     81.97558216	      0.00000000	      0.00000000	     89.95570962	    -13.95975573	     34.64736344	     48.15026142	     78.71957451	      0.00000000	      0.00000000
      4.17000000	     13.76439026	     -8.18661961	     -5.46144277	     -0.32077587	      0.85468826	     -1.02668067	     39.73978175	      6.80618559	    -13.35978695	      6.28251170	      0.10965051	     -0.41378877	      0.00000000	      0.00000000	     27.24624354	    -11.65507699	     -9.02652886	     82.21162830	      1.43486360	     28.53795891	      0.00000000	      0.00000000	    -25.30644469	     -2.23399396	     13.18061490	     89.92976091	    -18.40696464	     24.95153116	     31.64779060	     81.92746485	      0.00000000	      0.00000000	     89.95549400	    -13.98615217	     34.72495593	     48.11702581	     78.87427492	      0.00000000	      0.00000000
      4.17500000	     13.73633306	     -8.19309865	     -5.44801397	     -0.32074744	      0.85542980	     -1.02670634	     39.73340755	      6.80247522	    -13.36275172	      6.28259115	      0.10965190	     -0.42254779	      0.00000000	      0.00000000	     27.23935670	    -11.66371820	     -9.02976502	     82.15561181	      1.43388593	     28.52537434	      0.00000000	      0.00000000	    -25.25306702	     -2.21130565	     13.17277413	     89.92886156	    -18.42122718	     24.93665023	     31.67450563	     81.92355320	      0.00000000	      0.00000000	     89.95534368	    -13.98808660	     34.70956538	     48.12779941	     78.87738968	      0.00000000	      0.00000000
      4.18000000	     13.80295595	     -8.19590740	     -5.38895189	     -0.32047188	      0.85661898	     -1.02668618	     39.56227074	      6.79697960	    -13.54535070	      6.18535966	      0.10795489	     -0.38686260	      0.00000000	      0.00000000	     27.00538924	    -11.65489612	     -9.05424287	     81.84572773	      1.42847743	     28.35737164	      0.00000000	      0.00000000	    -25.25575512	     -2.20487141	     13.09484873	     89.92907162	    -18.38607868	     25.18309976	     31.45670200	     81.90737753	      0.00000000	      0.00000000	     89.95510452	    -14.01249323	     34.89003500	     47.96039967	     78.96997016	      0.00000000	      0.00000000
      4.18500000	     13.77215371	     -8.19640554	     -5.38659826	     -0.32034442	      0.85733885	     -1.02669163	     39.55737412	      6.79635756	    -13.55031674	      6.17724397	      0.10781325	     -0.37081289	      0.00000000	      0.00000000	     26.99186990	    -11.65972226	     -9.05790776	     81.78314935	      1.42738523	     28.34393566	      0.00000000	      0.00000000	    -25.19462353	     -2.18876060	     13.09144695	     89.92785699	    -18.38378668	     25.17930864	     31.48281448	     81.90479631	      0.00000000	      0.00000000	     89.95494833	    -14.01346986	     34.87347056	     47.97695673	     78.97397221	      0.00000000	      0.00000000
      4.19000000	     13.70599389	     -8.26085637	     -5.33546312	     -0.32039391	      0.85842963	     -1.02670699	     39.57393555	      6.80785780	    -13.54092345	      6.21377448	      0.10845082	     -0.46076892	      0.00000000	      0.00000000	     26.94171582	    -11.70520603	     -9.01083087	     81.48402499	      1.42216452	     28.24886348	      0.00000000	      0.00000000	    -25.11634880	     -2.10454307	     13.05012787	     89.92717842	    -18.37574499	     25.24687888	     31.42257731	     81.90485176	      0.00000000	      0.00000000	     89.95456595	    -14.04212413	     34.91293089	     47.93451837	     78.99595655	      0.00000000	      0.00000000
      4.19500000	     13.78172526	     -8.15402203	     -5.26541096	     -0.32017508	      0.85954636	     -1.02678132	     39.40716335	      6.70566124	    -13.67254653	      6.10622824	      0.10657379	     -0.33025369	      0.00000000	      0.00000000	     26.73064651	    -11.56404053	     -9.04658778	     81.23214345	      1.41776836	     28.05580994	      0.00000000	      0.00000000	    -25.10721365	     -2.18429562	     12.90803729	     89.92722196	    -18.29796758	     25.53699544	     31.16066728	     81.91749076	      0.00000000	      0.00000000	     89.95453029	    -14.08423642	     35.13587582	     47.77006122	     79.06118896	      0.00000000	      0.00000000
      4.20000000	     13.75470440	     -8.22327127	     -5.25195706	     -0.32001378	      0.86054991	     -1.02663562	     39.39309277	      6.74888993	    -13.56646737	      6.17799299	      0.10782632	     -0.39472466	      0.00000000	      0.00000000	     26.64718848	    -11.65743093	     -9.04789104	     81.05746979	      1.41471973	     28.00358053	      0.00000000	      0.00000000	    -25.03465386	     -2.10686063	     12.90088192	     89.92613754	    -18.29221941	     25.64543890	     31.08019570	     81.91829281	      0.00000000	      0.00000000	     89.95417700	    -14.14266362	     35.20110082	     47.73651548	     79.09162928	      0.00000000	      0.00000000
